<svg width="37" height="36" viewBox="0 0 37 36" fill="none" xmlns="http://www.w3.org/2000/svg">
<g id="air-balloon-large">
<path id="Vector" d="M18.5 3.75C12.2868 3.75 7.25 7.36523 7.25 12.75C7.25 16.8284 11.6394 24.8337 14.2409 27.75H22.7591C25.3606 24.8337 29.75 16.8284 29.75 12.75C29.75 7.36523 24.7132 3.75 18.5 3.75Z" stroke="#0077FF" stroke-width="2" stroke-linecap="round" stroke-linejoin="round"/>
<path id="Vector_2" d="M18.5 3.75C14.772 3.75 11.75 7.36523 11.75 12.75C11.75 16.8284 14.3836 24.8337 15.9445 27.75" stroke="#0077FF" stroke-width="2" stroke-linecap="round" stroke-linejoin="round"/>
<path id="Vector_3" d="M18.5 3.75C22.228 3.75 25.25 7.36523 25.25 12.75C25.25 16.8284 22.6164 24.8337 21.0555 27.75" stroke="#0077FF" stroke-width="2" stroke-linecap="round" stroke-linejoin="round"/>
<path id="Vector_4" d="M18.5 3.75C17.2573 3.75 16.25 7.36523 16.25 12.75C16.25 16.8284 17.1279 24.8337 17.6482 27.75" stroke="#0077FF" stroke-width="2" stroke-linecap="round" stroke-linejoin="round"/>
<path id="Vector_5" d="M18.5 3.75C19.7427 3.75 20.75 7.36523 20.75 12.75C20.75 16.8284 19.8721 24.8337 19.3518 27.75" stroke="#0077FF" stroke-width="2" stroke-linecap="round" stroke-linejoin="round"/>
<path id="Vector_6" d="M23 27.4775V32.25H14V27.4775" stroke="#0077FF" stroke-width="2" stroke-linecap="round" stroke-linejoin="round"/>
</g>
</svg>
