<svg width="36" height="36" viewBox="0 0 36 36" fill="none" xmlns="http://www.w3.org/2000/svg">
<g id="air-balloon-large">
<path id="Vector" d="M18 3.75C11.7868 3.75 6.75 7.36523 6.75 12.75C6.75 16.8284 11.1394 24.8337 13.7409 27.75H22.2591C24.8606 24.8337 29.25 16.8284 29.25 12.75C29.25 7.36523 24.2132 3.75 18 3.75Z" stroke="white" stroke-width="2" stroke-linecap="round" stroke-linejoin="round"/>
<path id="Vector_2" d="M18 3.75C14.272 3.75 11.25 7.36523 11.25 12.75C11.25 16.8284 13.8836 24.8337 15.4445 27.75" stroke="white" stroke-width="2" stroke-linecap="round" stroke-linejoin="round"/>
<path id="Vector_3" d="M18 3.75C21.728 3.75 24.75 7.36523 24.75 12.75C24.75 16.8284 22.1164 24.8337 20.5555 27.75" stroke="white" stroke-width="2" stroke-linecap="round" stroke-linejoin="round"/>
<path id="Vector_4" d="M18 3.75C16.7573 3.75 15.75 7.36523 15.75 12.75C15.75 16.8284 16.6279 24.8337 17.1482 27.75" stroke="white" stroke-width="2" stroke-linecap="round" stroke-linejoin="round"/>
<path id="Vector_5" d="M18 3.75C19.2427 3.75 20.25 7.36523 20.25 12.75C20.25 16.8284 19.3721 24.8337 18.8518 27.75" stroke="white" stroke-width="2" stroke-linecap="round" stroke-linejoin="round"/>
<path id="Vector_6" d="M22.5 27.4775V32.25H13.5V27.4775" stroke="white" stroke-width="2" stroke-linecap="round" stroke-linejoin="round"/>
</g>
</svg>
